HIERARCHY
ROOT Hips
{
	OFFSET -3.958830 18.904000 13.208200
	CHANNELS 6 Xposition Yposition Zposition Zrotation Yrotation Xrotation 
	JOINT LHipJoint
	{
		OFFSET 0.000000 0.000000 0.000000
		CHANNELS 3 Zrotation Yrotation Xrotation
		JOINT LeftUpLeg
		{
			OFFSET 1.800000 -1.400000 0.085000
			CHANNELS 3 Zrotation Yrotation Xrotation
			JOINT LeftLeg
			{
				OFFSET 2.215000 -6.000000 0.000000
				CHANNELS 3 Zrotation Yrotation Xrotation
				JOINT LeftFoot
				{
					OFFSET 2.500000 -6.900000 0.000000
					CHANNELS 3 Zrotation Yrotation Xrotation
					JOINT LeftToeBase
					{
						OFFSET 0.200000 -0.500000 1.950000
						CHANNELS 3 Zrotation Yrotation Xrotation
						End Site
						{
							OFFSET 0.000000 0.000000 0.000000
						}
					}
				}
			}
		}
	}
	JOINT RHipJoint
	{
		OFFSET 0.000000 0.000000 0.000000
		CHANNELS 3 Zrotation Yrotation Xrotation
		JOINT RightUpLeg
		{
			OFFSET -1.800000 -1.400000 0.085000
			CHANNELS 3 Zrotation Yrotation Xrotation
			JOINT RightLeg
			{
				OFFSET -2.215000 -6.000000 0.000000
				CHANNELS 3 Zrotation Yrotation Xrotation
				JOINT RightFoot
				{
					OFFSET -2.500000 -6.900000 0.000000
					CHANNELS 3 Zrotation Yrotation Xrotation
					JOINT RightToeBase
					{
						OFFSET -0.200000 -0.500000 1.950000
						CHANNELS 3 Zrotation Yrotation Xrotation
						End Site
						{
							OFFSET 0.000000 0.000000 0.000000
						}
					}
				}
			}
		}
	}
	JOINT LowerBack
	{
		OFFSET 0.000000 0.000000 0.000000
		CHANNELS 3 Zrotation Yrotation Xrotation
		JOINT Spine
		{
			OFFSET -0.087000 1.940000 -0.288900
			CHANNELS 3 Zrotation Yrotation Xrotation
			JOINT Spine1
			{
				OFFSET 0.000000 1.950000 0.060000
				CHANNELS 3 Zrotation Yrotation Xrotation
				JOINT Neck
				{
					OFFSET 0.000000 0.000000 0.000000
					CHANNELS 3 Zrotation Yrotation Xrotation
					JOINT Neck1
					{
						OFFSET 0.000000 1.600000 0.340000
						CHANNELS 3 Zrotation Yrotation Xrotation
						JOINT Head
						{
							OFFSET 0.000000 1.667000 -0.240000
							CHANNELS 3 Zrotation Yrotation Xrotation
							End Site
							{
								OFFSET 0.000000 0.000000 0.000000
							}
						}
					}
				}
				JOINT LeftShoulder
				{
					OFFSET 0.000000 0.000000 0.000000
					CHANNELS 3 Zrotation Yrotation Xrotation
					JOINT LeftArm
					{
						OFFSET 2.700000 1.550000 -0.730000
						CHANNELS 3 Zrotation Yrotation Xrotation
						JOINT LeftForeArm
						{
							OFFSET 5.450000 0.000000 0.000000
							CHANNELS 3 Zrotation Yrotation Xrotation
							JOINT LeftHand
							{
								OFFSET 3.450000 0.000000 0.000000
								CHANNELS 3 Zrotation Yrotation Xrotation
								JOINT LeftHandIndex1
								{
									OFFSET 0.750000 0.000000 0.000000
									CHANNELS 3 Zrotation Yrotation Xrotation
									End Site
									{
										OFFSET 0.000000 0.000000 0.000000
									}
								}
							}
						}
					}
				}
				JOINT RightShoulder
				{
					OFFSET 0.000000 0.000000 0.000000
					CHANNELS 3 Zrotation Yrotation Xrotation
					JOINT RightArm
					{
						OFFSET -2.700000 1.550000 -0.730000
						CHANNELS 3 Zrotation Yrotation Xrotation
						JOINT RightForeArm
						{
							OFFSET -5.450000 0.000000 0.000000
							CHANNELS 3 Zrotation Yrotation Xrotation
							JOINT RightHand
							{
								OFFSET -3.450000 0.000000 0.000000
								CHANNELS 3 Zrotation Yrotation Xrotation
								JOINT RightHandIndex1
								{
									OFFSET -0.750000 0.000000 0.000000
									CHANNELS 3 Zrotation Yrotation Xrotation
									End Site
									{
										OFFSET 0.000000 0.000000 0.000000
									}
								}
							}
						}
					}
				}
			}
		}
	}
}
MOTION
Frames: 13
Frame Time: 0.016667
-0.814580 17.119070 1.850760 0.398098 13.922102 3.380780 -15.037710 12.978134 3.240874 13.295270 -2.847770 -24.765273 -8.824190 8.177171 22.165134 -0.243785 5.056760 2.653673 0.291430 0.176940 0.300300 18.341779 -11.215309 2.125703 -13.549536 0.595306 -13.601003 8.992731 -7.563523 21.366204 -0.159915 -4.431946 2.746218 0.239080 0.131590 0.119240 -4.153239 -1.191646 -7.038927 10.017323 0.141456 10.677090 -8.152402 1.081335 4.545545 1.837810 -6.828832 -3.682394 -12.756600 10.689783 28.274553 -5.702150 10.624370 -6.161300 -27.916094 5.260077 -2.663548 -44.435645 -6.453884 -7.427819 0.336619 -58.440573 -2.159999 -3.746868 3.237955 0.102400 0.190210 -0.072090 0.075650 22.936067 -1.523798 1.762224 48.912816 1.736781 -5.953431 43.138368 41.027509 11.961803 2.314819 -1.822822 -0.140120 0.090300 -0.067970 -0.162390 
-0.884630 17.120300 1.834140 0.684396 13.454374 3.054712 -15.053586 13.073819 3.315861 14.468503 -2.684686 -25.332062 -8.251657 8.346446 23.162411 -0.244319 5.198965 2.572197 0.298220 0.177290 0.308320 18.312874 -11.280978 2.024906 -13.432777 0.641035 -14.152722 6.681266 -7.116910 22.889146 -0.150903 -4.310030 2.776801 0.230570 0.103710 0.119100 -4.088154 -1.293204 -7.086578 9.521464 0.122519 11.736231 -8.224943 1.235023 4.659484 1.772752 -7.323086 -4.153432 -13.927663 11.119208 28.602562 -5.490060 10.579310 -7.223460 -27.630308 4.700727 -2.333026 -45.023052 -6.491194 -7.953744 2.996418 -60.762984 -3.916879 -3.702614 3.211938 0.141620 0.156030 -0.045670 0.065630 22.764393 -0.467769 2.122528 48.909605 2.102738 -6.145920 43.692665 41.991172 12.501416 2.319966 -1.801077 -0.136050 0.092630 -0.060600 -0.170980 
-0.977300 17.109850 1.805200 0.646278 13.599609 2.526877 -15.039740 13.125096 3.389260 16.062196 -2.584164 -27.319337 -5.538254 8.340067 26.576502 -0.253880 5.442971 2.447581 0.331000 0.213510 0.347470 18.331387 -11.382575 1.911494 -13.699824 0.626979 -14.813032 4.386886 -6.822888 25.056156 -0.168441 -4.296518 2.773877 0.243960 0.052270 0.097120 -4.158403 -1.259304 -7.153490 10.345777 -0.246031 13.295683 -8.910281 1.174566 5.169662 1.828484 -8.069052 -4.742375 -15.605540 11.143672 28.773904 -6.200020 10.309480 -9.277900 -26.623956 4.180272 -1.958990 -45.881980 -7.220617 -8.215384 7.373006 -65.589847 -7.128695 -3.623637 3.147331 0.190420 0.107790 -0.004880 0.060840 21.540250 0.562288 2.468752 48.884888 3.081813 -5.968858 45.894420 43.049598 13.721751 2.328145 -1.789575 -0.136600 0.114420 -0.080130 -0.186830 
-1.088190 17.080130 1.782150 1.265225 13.514410 2.082098 -15.078334 13.227621 3.483479 17.615380 -2.335920 -28.667106 -3.399579 8.209340 28.543053 -0.227196 5.598938 2.365209 0.339390 0.225910 0.363990 18.291614 -11.437723 1.784154 -14.146192 0.561475 -15.303926 1.583039 -6.107148 26.157068 -0.162281 -4.177622 2.813719 0.232010 0.015780 0.095690 -4.056550 -1.399168 -7.236845 9.657773 -0.297741 14.823098 -8.904324 1.365733 5.744347 1.923528 -8.364349 -5.483007 -16.589597 11.345791 29.421469 -7.045510 10.642620 -9.991390 -25.995396 3.155950 -1.337796 -45.767062 -7.533961 -8.536355 13.071145 -71.902478 -12.206204 -3.555551 3.101760 0.210110 0.081890 0.026660 0.057730 20.791625 1.947925 3.020230 48.456710 3.511127 -6.029485 48.770214 45.327400 15.709046 2.343051 -1.807623 -0.120200 0.105830 -0.093860 -0.190190 
-1.190640 17.040450 1.732290 1.954024 13.650789 1.312169 -15.059603 13.342827 3.453074 17.891790 -2.301055 -29.656816 0.254015 7.256007 30.341379 -0.295563 5.538897 2.361692 0.353870 0.218610 0.423620 18.290071 -11.569773 1.733969 -14.936092 0.477461 -15.871138 -0.457551 -5.646046 27.021530 -0.172019 -4.128308 2.800614 0.234580 -0.037330 0.091750 -4.107695 -1.354826 -7.300535 9.891131 -0.570767 17.131187 -9.880070 1.410951 6.175848 2.205165 -8.481695 -5.725700 -17.083979 11.509348 30.268276 -8.603660 11.171240 -12.032190 -26.534174 2.109827 -1.314322 -43.861995 -8.653461 -8.342904 21.669951 -78.703847 -20.597410 -3.498292 2.959612 0.274790 0.048230 0.060230 0.023410 20.652758 2.805054 3.258321 47.158755 4.192786 -5.774434 52.963041 48.038223 18.707958 2.346868 -1.805651 -0.140430 0.113310 -0.087680 -0.235850 
-1.299110 16.977260 1.664850 2.656968 13.724874 0.876029 -15.062644 13.347328 3.537966 18.183913 -2.449406 -31.401111 3.647843 6.555389 33.481181 -0.257873 5.768483 2.262818 0.376070 0.244790 0.449290 18.295787 -11.599730 1.697147 -15.469053 0.563297 -17.191757 -1.992521 -5.392108 28.776244 -0.200808 -4.180149 2.763421 0.238870 -0.076240 0.087370 -4.124694 -1.314970 -7.426455 9.587809 -0.895758 19.838311 -10.658412 1.395567 6.205963 2.274683 -8.624226 -6.200098 -17.504435 11.721070 30.601753 -8.835470 11.344720 -13.730140 -26.203433 0.575552 -1.253894 -41.870375 -8.761657 -10.098801 58.889886 -84.588052 -53.259979 -3.260875 1.546607 0.309030 0.013030 0.095950 0.018760 20.178096 4.314430 3.852590 45.769129 4.582074 -5.721323 58.260924 50.351559 22.076568 2.374236 -1.820927 -0.132050 0.117000 -0.099920 -0.245140 
-1.402830 16.885170 1.603800 2.760225 13.286022 0.169768 -15.076940 13.334907 3.608198 18.741868 -2.500397 -32.801870 7.259248 5.825362 37.659019 -0.150830 6.270733 2.074439 0.416700 0.308910 0.460360 18.306533 -11.534438 1.690815 -15.723482 0.713076 -18.022886 -1.898550 -5.664756 30.448966 -0.248334 -4.353360 2.689677 0.264260 -0.101340 0.094180 -4.110338 -1.344094 -7.532543 9.735175 -1.214908 22.344462 -10.918175 1.508169 6.970902 2.280776 -8.996254 -6.857761 -18.362819 12.173037 30.134605 -8.972360 11.581380 -14.873440 -26.553655 0.101147 0.025693 -39.368815 -11.062341 -1.265838 104.643771 -72.286635 -90.375310 -3.872052 0.647417 0.309720 -0.004320 0.125350 0.035800 20.488406 5.624275 3.991940 41.948530 4.972834 -5.265443 67.184698 53.230219 28.025795 2.410578 -1.869411 -0.104550 0.111080 -0.125380 -0.233730 
-1.499120 16.822450 1.541860 2.809217 12.498975 -0.773559 -15.038938 13.304699 3.602407 19.012176 -2.715357 -33.081243 10.550142 4.932352 42.067289 -0.047970 6.907631 1.843807 0.443300 0.343070 0.481800 18.355727 -11.539212 1.721603 -15.472692 0.841093 -18.508765 -1.584242 -6.050746 32.198485 -0.301069 -4.576778 2.595218 0.287260 -0.124260 0.099710 -4.216012 -1.188524 -7.600392 10.362092 -1.802147 25.252669 -11.830326 1.308430 7.010647 2.184489 -9.373385 -7.031962 -19.168995 12.406984 29.610297 -9.423860 11.698910 -16.445770 -27.676542 -1.499744 0.150438 -33.868024 -12.134886 -1.386431 118.671410 -66.228865 -103.213349 -3.945280 2.316136 0.323990 -0.016210 0.143050 0.027790 21.759058 6.987752 4.351118 37.555292 4.731426 -5.012751 76.228549 54.858432 33.904533 2.451698 -1.873004 -0.097920 0.114510 -0.125620 -0.243580 
-1.591630 16.768300 1.495630 2.482649 11.428855 -1.546182 -15.037254 13.288272 3.629882 19.553518 -2.823908 -33.086756 12.636718 4.526977 46.672424 0.114185 7.703762 1.573197 0.436550 0.339320 0.483850 18.381424 -11.486359 1.744734 -14.292580 1.154771 -19.497117 -2.587329 -5.959480 34.704980 -0.350837 -4.810702 2.509382 0.280970 -0.121070 0.115100 -4.221851 -1.161520 -7.663672 10.601415 -2.261486 27.060542 -11.734627 1.072838 7.163781 2.068235 -9.299418 -7.165307 -19.096914 12.895301 29.985125 -9.968790 12.452430 -16.486280 -27.504137 -2.607444 0.412535 -30.285880 -11.751765 -2.108289 123.924176 -62.095685 -105.171343 -3.937867 2.597663 0.317850 -0.003730 0.147340 0.019580 21.879055 7.911869 4.390515 34.964861 5.636196 -4.669752 81.452229 55.674847 37.671620 2.484325 -1.862628 -0.090340 0.107320 -0.116430 -0.244710 
-1.680150 16.750250 1.439800 1.918948 11.128858 -2.520414 -15.060102 13.320799 3.645158 19.594460 -3.108888 -32.795052 14.467820 3.944314 50.925636 0.269016 8.417187 1.329224 0.430710 0.333850 0.505500 18.366764 -11.414039 1.796130 -13.107176 1.469691 -20.013775 -2.973597 -6.022219 36.671095 -0.405015 -5.030280 2.426387 0.272430 -0.145560 0.131330 -4.157801 -1.238514 -7.732570 10.655997 -2.440668 29.487204 -10.988560 1.238414 7.399974 2.162388 -8.604660 -7.137679 -17.643704 13.160989 30.804667 -11.291200 13.937930 -17.065630 -27.855975 -3.988215 0.500180 -26.354223 -11.751058 -2.610328 128.156399 -58.560507 -106.431571 -3.934050 2.751310 0.325600 0.003860 0.162530 -0.002400 22.076923 8.741006 4.488265 32.005942 5.660743 -5.144762 84.843042 56.363047 40.132236 2.503683 -1.851768 -0.085150 0.081360 -0.111700 -0.266220 
-1.752010 16.744420 1.394420 1.975308 11.227070 -2.297350 -15.093055 13.247689 3.670454 18.438280 -3.972587 -32.781197 15.391105 3.581911 55.179616 0.426118 9.100211 1.111071 0.435800 0.344450 0.519910 18.361577 -11.221843 1.916924 -13.687657 1.799802 -21.543032 -0.791909 -7.280679 38.653563 -0.466694 -5.423905 2.262156 0.280260 -0.152110 0.142150 -4.091833 -1.394745 -7.809934 10.211561 -2.508646 30.135551 -10.342487 1.160598 8.046943 1.926402 -8.060673 -7.254072 -16.706753 13.690241 31.342700 -11.323400 15.085410 -17.182580 -26.184133 -4.793000 0.536713 -23.520909 -13.123913 -2.344271 126.900537 -56.755792 -101.863626 -3.934567 2.700266 0.325480 0.012230 0.170760 -0.011410 20.955053 9.068871 4.493515 31.448879 6.306089 -5.147241 85.038187 56.419213 40.191754 2.498217 -1.856965 -0.082990 0.069610 -0.111270 -0.275850 
-1.801310 16.768040 1.373010 1.631973 10.358089 -2.516758 -15.063893 13.308624 3.564420 17.169900 -4.465628 -30.914850 15.318968 3.775143 58.768793 0.585805 9.697295 0.936546 0.408640 0.309540 0.507410 18.365702 -11.220258 2.015192 -13.648066 1.833003 -21.570784 0.870998 -7.887849 38.145885 -0.461394 -5.450090 2.256172 0.256970 -0.148070 0.138910 -4.119749 -1.401145 -7.804688 10.634850 -2.527484 30.245359 -10.003369 1.165242 8.546964 1.803311 -7.655771 -7.759848 -16.225131 14.100955 32.755464 -11.137240 15.909590 -16.239090 -25.230990 -6.173615 1.111949 -20.308528 -12.393704 -2.814383 125.758926 -56.076076 -99.055700 -3.939234 2.643421 0.331740 0.017500 0.163860 -0.022100 20.345479 10.237247 4.889872 31.102715 6.716154 -5.299101 83.589562 55.924709 38.776567 2.490354 -1.851963 -0.092290 0.060090 -0.097660 -0.283950 
-1.829290 16.805960 1.359380 1.256591 9.574803 -2.463288 -15.069493 13.394887 3.493710 15.761245 -4.868426 -28.845560 13.888542 4.866510 61.657019 0.737541 10.216323 0.799021 0.366010 0.246840 0.499750 18.334158 -11.168400 2.114007 -13.454766 1.920068 -21.630103 2.395659 -8.400733 37.696522 -0.449765 -5.473562 2.253980 0.216110 -0.150120 0.131720 -4.047613 -1.561584 -7.822571 10.873585 -2.303652 29.895940 -8.942743 1.380272 9.172111 1.877169 -7.073813 -8.437331 -15.412401 13.153678 34.290778 -11.722020 15.831660 -14.793240 -24.144131 -7.634134 1.833587 -17.925644 -11.731643 -2.903429 124.046070 -57.246299 -97.827471 -3.940511 2.559216 0.331740 0.021880 0.151010 -0.038670 19.273675 11.690857 5.546928 30.731042 6.787467 -5.637489 80.682646 55.911447 36.747991 2.490590 -1.839238 -0.103380 0.044120 -0.086060 -0.294390 
